<?xml version="1.0" encoding="utf-8"?>
<!-- Generator: Adobe Illustrator 22.1.0, SVG Export Plug-In . SVG Version: 6.00 Build 0)  -->
<svg version="1.1" id="Слой_1" xmlns="http://www.w3.org/2000/svg" xmlns:xlink="http://www.w3.org/1999/xlink" x="0px" y="0px"
	 viewBox="0 0 240.1 66.8" style="enable-background:new 0 0 240.1 66.8;" xml:space="preserve">
<style type="text/css">
	.st0{fill:#FFFFFF;}
	.st1{fill-rule:evenodd;clip-rule:evenodd;fill:#FFFFFF;}
	.st2{fill-rule:evenodd;clip-rule:evenodd;fill:#FFFFFF;}
	.st3{fill-rule:evenodd;clip-rule:evenodd;fill:#FFFFFF;}
	.st4{fill-rule:evenodd;clip-rule:evenodd;fill:#FFFFFF;}
	.st5{fill-rule:evenodd;clip-rule:evenodd;fill:#FFFFFF;}
	.st6{fill-rule:evenodd;clip-rule:evenodd;fill:#FFFFFF;}
	.st7{fill-rule:evenodd;clip-rule:evenodd;fill:#FFFFFF;}
	.st8{fill-rule:evenodd;clip-rule:evenodd;fill:#FFFFFF;}
	.st9{fill-rule:evenodd;clip-rule:evenodd;fill:#FFFFFF;}
</style>
<path class="st0" d="M239.6,35.7v30.3h-4.7V40.1h-4.5v11.7c0,2.4-0.1,4.5-0.3,6.2c-0.2,1.7-0.5,3.1-1,4.2c-0.5,1.1-1.1,2.1-1.9,2.8
	c-0.8,0.7-1.8,1.3-3,1.9l-1.8-3.5c0.8-0.4,1.4-0.9,1.8-1.4c0.5-0.5,0.9-1.2,1.1-1.9c0.3-0.8,0.5-1.7,0.6-2.8
	c0.1-1.1,0.2-2.4,0.2-4.1V35.7H239.6z M220,35.7v30.3h-4.7V40.1h-4.5v11.7c0,2.4-0.1,4.5-0.3,6.2c-0.2,1.7-0.5,3.1-1,4.2
	c-0.5,1.1-1.1,2.1-1.9,2.8c-0.8,0.7-1.8,1.3-3,1.9l-1.8-3.5c0.8-0.4,1.4-0.9,1.8-1.4c0.5-0.5,0.9-1.2,1.1-1.9
	c0.3-0.8,0.5-1.7,0.6-2.8c0.1-1.1,0.2-2.4,0.2-4.1V35.7H220z M193.4,42.7c-0.3,2.1-0.6,4.2-0.9,6.3c-0.3,2.1-0.7,4.2-1,6.3h4.1
	l-1.9-12.6H193.4z M197.5,66.1l-1.2-6.3h-5.5c-0.2,1-0.4,2.1-0.6,3.2c-0.2,1.1-0.4,2.1-0.5,3.2h-4.8c1-5.1,2-10.1,3-15.2
	c1-5,2-10.1,3-15.2h5.2l6.1,30.3H197.5z M181.1,40.1v25.9h-4.7V40.1h-4.9v-4.4h14.4v4.4H181.1z M163.1,35.5c1.2,0,2.3,0.2,3.2,0.5
	c0.9,0.3,1.6,0.8,2.2,1.4c0.6,0.6,1,1.4,1.3,2.2s0.4,1.8,0.4,2.8l-4.5,1.2c0-1.1-0.2-2-0.6-2.7c-0.4-0.7-1.1-1-2-1
	c-0.5,0-1,0.1-1.3,0.3c-0.3,0.2-0.6,0.5-0.8,0.9c-0.2,0.4-0.3,0.8-0.4,1.2c-0.1,0.4-0.1,0.8-0.1,1.2v15.4c0,0.3,0,0.6,0.1,1
	c0.1,0.4,0.2,0.7,0.4,1c0.2,0.3,0.4,0.6,0.8,0.8c0.3,0.2,0.8,0.3,1.3,0.3c1.7,0,2.6-1.2,2.6-3.7c0.8,0.1,1.6,0.3,2.3,0.4
	c0.8,0.1,1.6,0.2,2.3,0.3c-0.1,2.3-0.7,4.1-1.9,5.4c-1.2,1.3-3,2-5.3,2c-2.5,0-4.3-0.6-5.5-1.9c-1.2-1.3-1.8-3.1-1.8-5.6V43.7
	c0-1.1,0.1-2.2,0.4-3.2c0.2-1,0.7-1.9,1.2-2.6c0.6-0.8,1.3-1.4,2.3-1.8C160.6,35.7,161.8,35.5,163.1,35.5z M147,47.1l-6.3,19h-4.5
	V35.7h4.5v19.2h0.2l6.3-19.2h4.5v30.3h-4.6v-19H147z M123.2,40.1v9.8h1.6c1.4,0,2.4-0.4,3-1.2c0.6-0.8,0.8-2.1,0.8-3.7
	c0-1.5-0.3-2.7-0.8-3.5c-0.5-0.9-1.5-1.3-3-1.3H123.2z M125.2,35.7c2.8,0,4.8,0.7,6.1,2.2c1.3,1.5,1.9,3.8,1.9,7
	c0,1.4-0.1,2.7-0.4,3.9c-0.3,1.2-0.7,2.2-1.3,3c-0.6,0.8-1.5,1.5-2.5,1.9s-2.3,0.7-3.9,0.7h-1.9v11.6h-4.7V35.7H125.2z M99.5,66.1
	V35.7h4.7v12.8h1c1,0,1.9-0.3,2.6-0.9c0.7-0.6,1.2-1.7,1.5-3.3c0.1-0.3,0.2-0.8,0.4-1.6c0.2-0.8,0.4-1.7,0.6-2.7
	c0.2-0.9,0.4-1.8,0.5-2.7c0.2-0.8,0.3-1.4,0.3-1.6h4.4c-0.3,1.5-0.6,3.1-1,4.6c-0.3,1.5-0.6,3-1,4.5c-0.3,1.5-0.8,2.7-1.5,3.6
	c-0.7,0.9-1.4,1.5-2.2,1.9v0.1c1.1,0.4,1.9,1.1,2.6,2c0.6,0.9,1.1,2.1,1.4,3.6c0.4,1.7,0.7,3.4,1.1,5.1c0.3,1.7,0.7,3.3,1.1,5h-4.7
	c-0.3-1.5-0.6-3-0.9-4.4c-0.3-1.5-0.6-3-0.9-4.4c-0.3-1.6-0.8-2.8-1.5-3.4c-0.6-0.6-1.5-1-2.5-1h-1.3v13.2H99.5z M230.9,7.3
	c0,1.6,0.4,2.7,1.1,3.4c0.7,0.7,1.8,1.1,3.1,1.1h2.7V2.2h-2.5c-0.8,0-1.5,0.1-2.1,0.4c-0.6,0.3-1,0.6-1.3,1c-0.3,0.4-0.6,1-0.7,1.6
	C231,5.9,230.9,6.6,230.9,7.3z M227.8,25.2l1.5-7.8c0.2-1,0.5-1.9,0.9-2.6c0.4-0.8,1-1.4,1.8-1.8c-1.3-0.4-2.1-1-2.6-2
	c-0.5-1-0.7-2.2-0.7-3.6c0-2.3,0.5-4,1.5-5.2c1-1.2,2.6-1.9,4.7-1.9h5.1v25h-2.2V13.8h-2.4c-0.4,0-0.8,0-1.2,0.1
	c-0.4,0.1-0.8,0.3-1.1,0.6c-0.4,0.3-0.7,0.7-1,1.2c-0.3,0.5-0.5,1.2-0.7,2.1l-1.5,7.5H227.8z M222.7,5.6l-7.3,19.7h-2v-25h2.2v19.7
	l0.1,0l7.2-19.7h2.1v25h-2.2V5.6H222.7z M203.6,25.2h-2.2v-1.9h0c-0.8,0-1.6-0.2-2.3-0.4c-0.7-0.3-1.4-0.6-1.9-1.1
	c-0.5-0.5-1-1.1-1.3-1.8c-0.3-0.7-0.5-1.6-0.5-2.6V7.6c0-1,0.2-1.8,0.5-2.5c0.4-0.7,0.8-1.3,1.4-1.8c0.6-0.5,1.2-0.9,1.9-1.2
	c0.7-0.3,1.4-0.4,2.2-0.4V0.2h2.2v1.5c0.7,0,1.5,0.2,2.2,0.4c0.7,0.3,1.4,0.6,2,1.1c0.6,0.5,1.1,1.1,1.4,1.8
	c0.4,0.7,0.5,1.6,0.5,2.6v9.7c0,1-0.2,1.8-0.5,2.6c-0.3,0.7-0.8,1.3-1.3,1.8c-0.6,0.5-1.2,0.9-1.9,1.1c-0.7,0.3-1.5,0.4-2.4,0.5
	V25.2z M203.6,21.3c1.1,0,2.1-0.4,2.8-1.1c0.7-0.7,1.1-1.6,1.1-2.9V7.6c0-0.6-0.1-1.2-0.4-1.7c-0.2-0.5-0.5-0.9-0.9-1.2
	c-0.4-0.3-0.8-0.6-1.3-0.8s-0.9-0.3-1.4-0.3V21.3z M201.5,3.7L201.5,3.7c-0.5,0-1,0.1-1.5,0.3c-0.5,0.2-0.9,0.4-1.2,0.7
	c-0.4,0.3-0.6,0.7-0.9,1.2c-0.2,0.5-0.3,1-0.3,1.7v9.7c0,0.6,0.1,1.2,0.3,1.7c0.2,0.5,0.5,0.9,0.8,1.2c0.4,0.3,0.8,0.6,1.2,0.8
	c0.5,0.2,1,0.3,1.5,0.3V3.7z M186.6,3.9l-1.2,6l-1.5,7.2h5.4l-1.5-7.3l-1.1-6H186.6z M191,25.2l-1.3-6h-6.2l-1.3,6h-2.1l5.4-25h2.2
	l5.5,25H191z M171.3,12.9h2.5c0.9,0,1.6-0.1,2.2-0.4c0.6-0.3,1-0.6,1.4-1.1c0.3-0.5,0.6-1,0.7-1.7c0.1-0.7,0.2-1.4,0.2-2.2
	c0-0.7-0.1-1.4-0.2-2.1c-0.1-0.7-0.3-1.2-0.6-1.7c-0.3-0.5-0.8-0.8-1.3-1.1c-0.6-0.3-1.3-0.4-2.2-0.4h-2.6V12.9z M174.2,0.2
	c1.2,0,2.3,0.2,3.1,0.5c0.8,0.3,1.5,0.8,1.9,1.5c0.5,0.6,0.8,1.4,1,2.3c0.2,0.9,0.3,1.9,0.3,3c0,1.1-0.1,2-0.3,2.9
	c-0.2,0.9-0.5,1.7-1,2.4c-0.5,0.7-1.1,1.2-2,1.5c-0.9,0.4-1.9,0.6-3.2,0.6h-2.6v10.3h-2.2v-25H174.2z M158.4,2.2v23h-2.2v-25h10v2
	H158.4z M150.2,6c0-0.5-0.1-1-0.2-1.5c-0.1-0.5-0.3-0.9-0.6-1.3c-0.3-0.4-0.6-0.7-1-0.9c-0.4-0.2-1-0.3-1.6-0.3
	c-0.7,0-1.3,0.1-1.7,0.4c-0.4,0.3-0.8,0.7-1.1,1.1c-0.3,0.5-0.4,1-0.5,1.5c-0.1,0.5-0.2,1-0.2,1.5v13c0,0.5,0.1,0.9,0.2,1.4
	c0.1,0.5,0.3,0.9,0.6,1.2c0.3,0.4,0.6,0.6,1.1,0.9c0.4,0.2,1,0.3,1.6,0.3c1.3,0,2.1-0.4,2.7-1.2c0.5-0.8,0.8-1.8,0.8-2.9V6z
	 M152.4,19c0,2.1-0.5,3.7-1.4,4.8c-0.9,1.1-2.4,1.6-4.3,1.6c-1.9,0-3.3-0.5-4.2-1.5c-0.9-1-1.4-2.5-1.4-4.3V6.5
	c0-0.9,0.1-1.7,0.3-2.5c0.2-0.8,0.5-1.5,0.9-2.1c0.4-0.6,1-1,1.7-1.4c0.7-0.3,1.6-0.5,2.7-0.5c1.1,0,2,0.1,2.7,0.4
	c0.7,0.3,1.3,0.7,1.7,1.3c0.4,0.6,0.7,1.2,0.9,2c0.2,0.8,0.3,1.6,0.3,2.6V19z M135.1,25.2V2.3h-6.5v22.9h-2.2v-25h10.9v25H135.1z
	 M120.1,5.6l-7.3,19.7h-2v-25h2.2v19.7l0.1,0l7.2-19.7h2.1v25h-2.2V5.6H120.1z M104.1,2.2v23h-2.2v-23h-4.5v-2h11.2v2H104.1z"/>
<polygon class="st1" points="65.9,0.4 76.5,11 87.1,21.6 65.9,21.6 63.6,19.3 62.7,0.4 "/>
<rect x="47.7" y="37.8" transform="matrix(0.7071 -0.7071 0.7071 0.7071 -15.883 52.3575)" class="st2" width="15.1" height="15.1"/>
<rect x="13.7" y="27.2" transform="matrix(0.7071 -0.7071 0.7071 0.7071 -18.2964 25.207)" class="st3" width="15.1" height="15.1"/>
<polygon class="st4" points="44.6,56 44.6,45.3 55.3,56 44.6,66.6 "/>
<polygon class="st5" points="10.7,24.1 21.3,24.1 10.7,34.7 0,24.1 "/>
<rect x="58.4" y="27.2" transform="matrix(0.7071 -0.7071 0.7071 0.7071 -5.2507 56.7628)" class="st3" width="15.1" height="15.1"/>
<polygon class="st6" points="44.7,0.4 65.9,0.4 65.9,21.6 55.3,11 "/>
<rect x="24.4" y="37.8" transform="matrix(0.7071 -0.7071 0.7071 0.7071 -22.7003 35.8384)" class="st2" width="15.1" height="15.1"/>
<polygon class="st5" points="65.9,24.1 76.5,24.1 87.2,24.1 76.5,34.7 "/>
<polygon class="st4" points="42.5,45.3 42.5,55.9 42.5,66.6 31.9,55.9 "/>
<polygon class="st7" points="44.6,45.4 55.3,45.4 65.9,45.4 55.3,56 "/>
<polygon class="st8" points="21.3,24 21.3,34.7 21.3,45.3 10.6,34.7 "/>
<polygon class="st8" points="65.9,34.7 65.9,24.1 76.5,34.7 65.9,45.4 "/>
<polygon class="st7" points="31.9,45.3 42.6,45.3 31.9,56 21.3,45.3 "/>
<polygon class="st4" points="0,21.6 10.6,11 21.3,0.4 21.3,21.6 "/>
<polygon class="st9" points="42.5,21.6 31.8,11 21.2,0.4 21.2,21.6 "/>
<polygon class="st4" points="65.9,0.4 76.5,11 87.1,21.6 65.9,21.6 "/>
</svg>
